# OBJ written from C:\Users\zakhar\Desktop\modo_exp\old_book\my_book.obj
# Units	meters

o Mesh
v 0.585751 0.227333 0.983001
v -0.614537 0.229648 0.983
v -0.652458 0.21014 0.983
v -0.668235 0.162906 0.983
v -0.668659 -0.0805739 0.983
v -0.653047 -0.127872 0.983
v -0.61519 -0.147521 0.983
v 0.585096 -0.149835 0.982999
v 0.585752 0.227333 -0.977001
v 0.585096 -0.149835 -0.976999
v -0.61519 -0.147521 -0.977
v -0.653047 -0.127872 -0.977
v -0.668659 -0.0805739 -0.977
v -0.668234 0.162906 -0.977
v -0.652458 0.21014 -0.977
v -0.614537 0.229648 -0.977
v -0.621623 -0.187399 1.015
v -0.61967 -0.17529 1.025
v -0.70065 -0.0884523 1.015
v -0.690936 -0.0860601 1.025
v -0.619669 -0.17529 -1.025
v -0.621623 -0.187399 -1.015
v -0.690936 -0.0860601 -1.025
v -0.70065 -0.0884523 -1.015
v -0.618916 0.257434 1.025
v -0.620825 0.26955 1.015
v -0.690492 0.168471 1.025
v -0.700198 0.170897 1.015
v -0.620825 0.26955 -1.015
v -0.618916 0.257434 -1.025
v -0.700198 0.170897 -1.015
v -0.690492 0.168471 -1.025
v -0.67056 -0.149638 1.025
v -0.677576 -0.158358 1.015
v -0.677575 -0.158358 -1.015
v -0.67056 -0.149638 -1.025
v -0.669893 0.23197 1.025
v -0.676878 0.240716 1.015
v -0.676878 0.240716 -1.015
v -0.669893 0.23197 -1.025
v -0.61519 -0.147521 1.015
v -0.617143 -0.15963 1.025
v -0.678373 -0.0829662 1.025
v -0.668659 -0.0805739 1.015
v -0.617143 -0.15963 -1.025
v -0.61519 -0.147521 -1.015
v -0.678373 -0.0829662 -1.025
v -0.668659 -0.0805739 -1.015
v -0.616446 0.241764 1.025
v -0.614537 0.229648 1.015
v -0.67794 0.165333 1.025
v -0.668235 0.162906 1.015
v -0.614537 0.229648 -1.015
v -0.616446 0.241764 -1.025
v -0.67794 0.165333 -1.025
v -0.668234 0.162906 -1.015
v -0.660063 -0.136592 1.025
v -0.653047 -0.127872 1.015
v -0.660063 -0.136592 -1.025
v -0.653047 -0.127872 -1.015
v -0.659443 0.218886 1.025
v -0.652458 0.21014 1.015
v -0.659443 0.218886 -1.025
v -0.652458 0.21014 -1.015
v 0.595397 -0.177311 -1.025
v 0.593444 -0.189658 -1.01519
v 0.630047 -0.177376 -0.99
v 0.620315 -0.189708 -0.988049
v 0.630047 -0.177376 0.99
v 0.620315 -0.189708 0.988049
v 0.595397 -0.177311 1.025
v 0.593444 -0.189658 1.01519
v 0.630801 0.254873 -0.99
v 0.621113 0.267242 -0.988049
v 0.596151 0.254938 -1.025
v 0.594241 0.267291 -1.01519
v 0.630801 0.254873 0.99
v 0.621113 0.267242 0.988049
v 0.596151 0.254938 1.025
v 0.594241 0.267291 1.01519
v 0.593339 -0.149784 -1.01523
v 0.595424 -0.162121 -1.025
v 0.630074 -0.162185 -0.989999
v 0.620578 -0.149835 -0.987249
v 0.620312 -0.149835 0.988476
v 0.630074 -0.162185 0.989999
v 0.595424 -0.162121 1.025
v 0.593055 -0.149786 1.01529
v 0.621233 0.227333 -0.987252
v 0.630774 0.239683 -0.990001
v 0.596124 0.239747 -1.025
v 0.593995 0.227384 -1.01523
v 0.59371 0.227383 1.0153
v 0.596124 0.239747 1.025
v 0.630774 0.239683 0.990001
v 0.620967 0.227333 0.988479
v 0.620652 0.254892 -1.01475
v 0.613674 0.267255 -1.00768
v 0.620625 0.239702 -1.01475
v 0.613602 0.227345 -1.00768
v 0.620652 0.254892 1.01475
v 0.613673 0.267255 1.00768
v 0.620625 0.239702 1.01475
v 0.613602 0.227342 1.00768
v 0.619898 -0.177357 1.01475
v 0.612876 -0.189694 1.00768
v 0.619925 -0.162167 1.01475
v 0.612947 -0.149826 1.00768
v 0.619898 -0.177357 -1.01475
v 0.612876 -0.189694 -1.00768
v 0.619925 -0.162167 -1.01475
v 0.612947 -0.149824 -1.00768
v -0.620825 0.26955 0.98455
v -0.676878 0.240716 0.98455
v -0.620825 0.26955 -0.98455
v -0.676878 0.240716 -0.98455
v -0.700198 0.170897 0.98455
v -0.700198 0.170897 -0.98455
v -0.70065 -0.0884523 0.98455
v -0.677576 -0.158358 0.98455
v -0.70065 -0.0884523 -0.98455
v -0.677575 -0.158358 -0.98455
v -0.621623 -0.187399 0.98455
v -0.621623 -0.187399 -0.98455
v 0.594241 0.267291 0.984736
v 0.594241 0.267291 -0.984736
v 0.593444 -0.189658 0.984736
v 0.593444 -0.189658 -0.984736
v 0.585637 0.161329 0.983001
v 0.585637 0.161329 -0.977001
v 0.585211 -0.0838309 0.982999
v 0.585211 -0.0838309 -0.976999
v -0.615076 -0.0815163 0.983
v -0.614651 0.163643 0.983
v -0.614651 0.163643 -0.977
v -0.615076 -0.0815163 -0.977
vn -0.00133203 -1.235 0.000969014
vn -0.000868782 -1.235 0.000645588
vn -0.000967155 -1.235 0.00129117
vn -0.00161285 -1.235 0.00145352
vn -0.00137525 -1.235 -0.000857352
vn -0.00167768 -1.235 -0.00128603
vn -0.00109845 -1.235 -0.0011586
vn -0.00093443 -1.235 -0.000579298
vn 0.00133203 1.235 -0.000969014
vn 0.00161285 1.235 -0.00145352
vn 0.000967155 1.235 -0.00129117
vn 0.000868782 1.235 -0.000645588
vn 0.00137525 1.235 0.000857352
vn 0.00093443 1.235 0.000579298
vn 0.00109845 1.235 0.0011586
vn 0.00167768 1.235 0.00128603
vn 0.378857 -0.000637609 -0.923879
vn 0.19314 -0.000325099 -0.980785
vn 0.970976 -0.00173583 -0.19509
vn 0.914639 -0.00162321 -0.382683
vn 0.914639 -0.00162779 0.382683
vn 0.970976 -0.00173816 0.19509
vn 0.19314 -0.000325099 0.980785
vn 0.378857 -0.000637609 0.923879
vn 0.193139 -0.000325099 0.980785
vn 0.970976 -0.00173583 0.19509
vn 0.914639 -0.00162321 0.382683
vn 0.914639 -0.00162779 -0.382683
vn 0.970976 -0.00173816 -0.19509
vn 0.193139 -0.000325099 -0.980785
vn 0.376802 -1.14168 1.64705e-08
vn 0.190942 -1.21163 -0.00072057
vn 0.970553 -0.242644 4.24242e-08
vn 0.913806 -0.474235 3.99437e-08
vn 0.971399 0.239227 4.24612e-08
vn 0.915473 0.47099 4.00166e-08
vn 0.195336 1.21091 0.000720581
vn 0.38091 1.1403 1.66501e-08
vn -1.48694e-07 -4.73667e-08 -1
vn -2.36117e-07 -4.73667e-08 1
vn 0.38091 1.1403 1.66501e-08
vn 0.195337 1.21091 -0.00082375
vn 0.970553 -0.242644 4.24242e-08
vn 0.190941 -1.21163 0.000823773
vn 0.376802 -1.14168 1.64705e-08
vn 1.48521e-07 -4.80757e-08 1
vn 4.37114e-08 -5.3531e-24 -1
vn 2.35944e-07 -4.80757e-08 -1
vn -4.37114e-08 5.3531e-24 1
vn 0.689095 0.871108 -0.136933
vn 0.700851 0.855151 0.14191
vn -0.697829 0.172479 -0.695334
vn -0.687584 -0.164682 -0.707102
vn -0.687002 0.167099 0.707102
vn -0.698427 -0.170022 0.695337
vn 0.685735 -0.873455 0.138757
vn 0.693991 -0.862432 -0.142047
vn -0.134445 -0.84847 0.713936
vn -0.491075 -0.602261 0.718688
vn -0.484581 -0.610391 -0.718688
vn -0.138799 -0.870655 -0.695338
vn -0.4824 0.612133 0.718691
vn -0.488925 0.604023 -0.718691
vn -0.135648 0.871165 0.695335
vn -0.131373 0.848982 -0.71392
vn 0.142073 0.868451 -0.696472
vn 0.14197 0.868822 -0.696189
vn 0.134783 -0.872825 -0.694141
vn 0.134947 -0.846901 -0.714857
vn 0.137412 0.873213 0.693513
vn 0.137997 0.845533 0.71553
vn 0.483579 -0.612644 0.717595
vn 0.138903 -0.868979 0.696469
vn 0.686284 -0.171575 0.707108
vn 0.69667 0.174122 0.696472
vn 0.491486 0.603731 0.717593
vn 0.139021 -0.868566 0.696783
vn 0.130354 -0.865229 -0.701207
vn 0.686861 -0.874491 -0.1284
vn 0.699468 -0.857685 0.133197
vn 0.485761 0.610898 -0.717593
vn 0.686883 0.169159 -0.707106
vn 0.696058 -0.176574 -0.696468
vn 0.489331 -0.605495 -0.717595
vn 0.125582 -0.873446 0.695396
vn 0.133491 0.864769 0.701184
vn 0.690003 0.871975 0.128393
vn 0.702546 0.855127 -0.13319
vn 0.128749 0.873021 -0.695358
vn 0.479913 -0.890666 -0.494319
vn 0.487756 -0.890681 0.486396
vn 0.483118 0.888928 0.494288
vn 0.49096 0.888915 -0.486365
vn 0.488937 -0.8872 -0.48935
vn 0.48516 -0.884315 0.496562
vn 0.490933 0.887851 0.487665
vn 0.483642 0.888775 -0.493947
vn -0.190948 1.21162 -8.3466e-09
vn -0.376802 1.14168 -1.64706e-08
vn -0.376802 1.14168 -1.64706e-08
vn -0.913806 0.474236 -3.99437e-08
vn -0.970553 0.242645 -4.24242e-08
vn -0.970553 0.242645 -4.24242e-08
vn -0.971399 -0.239228 -4.24612e-08
vn -0.915473 -0.470991 -4.00166e-08
vn -0.38091 -1.1403 -1.66501e-08
vn -0.19533 -1.21091 -8.53816e-09
vn -0.19533 -1.21091 -8.53816e-09
vn 0.00224556 1.235 9.81567e-11
vn 0.00224544 1.235 9.81511e-11
vn 0.00224529 1.235 -1.23202e-07
vn 0.00224528 1.235 -2.46502e-07
vn -0.00224529 -1.235 -1.23398e-07
vn -0.00224528 -1.235 -2.46698e-07
vn -0.00224544 -1.235 -9.81511e-11
vn -0.00224556 -1.235 -9.81567e-11
vn 0.00224513 1.235 -2.46502e-07
vn 0.0022451 1.235 -4.93102e-07
vn -0.00224567 -1.235 -9.81613e-11
vn -0.00224541 -1.235 -9.81501e-11
vn 0.00224567 1.235 9.81613e-11
vn 0.00224541 1.235 9.81501e-11
vn -0.00224513 -1.235 -2.46698e-07
vn -0.0022451 -1.235 -4.93298e-07
vn 0.989999 -0.00171548 4.32742e-08
vn 0.989999 -0.00171574 4.32742e-08
vn 1.10385e-06 -1.10207e-05 1
vn 9.08378e-07 -1.14442e-05 1
vn 4.32333e-07 -5.72208e-06 1
vn 5.30069e-07 -5.51035e-06 1
vn -6.50279e-08 -1.14425e-05 1
vn -5.43697e-08 -5.72123e-06 1
vn -8.42963e-07 -1.10173e-05 1
vn -4.43337e-07 -5.50866e-06 1
vn -1.1449e-06 -1.10166e-05 -1
vn -9.5101e-07 -1.14408e-05 -1
vn -4.53649e-07 -5.72039e-06 -1
vn -5.50595e-07 -5.50832e-06 -1
vn 2.23948e-08 -1.14425e-05 -1
vn 3.30531e-08 -5.72123e-06 -1
vn 8.01909e-07 -1.102e-05 -1
vn 4.2281e-07 -5.51001e-06 -1
vt 0.0213225 0.927333
vt 0.0213225 0.935379
vt 0.0100001 0.935379
vt 0.0100001 0.927333
vt 0.763967 0.927333
vt 0.776391 0.927333
vt 0.776391 0.935379
vt 0.763967 0.935379
vt 0.0213239 0.95725
vt 0.01 0.95725
vt 0.01 0.949203
vt 0.0213239 0.949203
vt 0.764062 0.95725
vt 0.764062 0.949203
vt 0.776487 0.949203
vt 0.776487 0.95725
vt 0.99 0.82196
vt 0.985979 0.82196
vt 0.985979 0.814342
vt 0.99 0.814342
vt 0.95741 0.66168
vt 0.96134 0.66168
vt 0.96134 0.669318
vt 0.95741 0.669318
vt 0.95741 0.0220306
vt 0.96134 0.0220306
vt 0.96134 0.0296679
vt 0.95741 0.0296679
vt 0.981471 0.412817
vt 0.985493 0.412817
vt 0.985493 0.420435
vt 0.981471 0.420435
vt 0.969441 0.0220306
vt 0.973462 0.0220306
vt 0.973462 0.0296491
vt 0.969441 0.0296491
vt 0.949898 0.0296679
vt 0.949898 0.0220306
vt 0.953828 0.0220306
vt 0.953828 0.0296679
vt 0.949898 0.669316
vt 0.949898 0.661679
vt 0.953828 0.661679
vt 0.953828 0.669316
vt 0.969441 0.814341
vt 0.973462 0.814341
vt 0.973462 0.82196
vt 0.969441 0.82196
vt 0.678129 0.668676
vt 0.678129 0.680652
vt 0.664164 0.680652
vt 0.664164 0.668676
vt 0.692095 0.668676
vt 0.692095 0.680652
vt 0.754844 0.668676
vt 0.754844 0.680652
vt 0.768811 0.668676
vt 0.768811 0.680652
vt 0.782779 0.668676
vt 0.782779 0.680652
vt 0.973462 0.423552
vt 0.969441 0.423552
vt 0.973462 0.420435
vt 0.969441 0.420435
vt 0.768849 0.702773
vt 0.768849 0.692684
vt 0.782822 0.692684
vt 0.782822 0.702773
vt 0.754876 0.702773
vt 0.754876 0.692684
vt 0.692105 0.702773
vt 0.692105 0.692684
vt 0.678135 0.702773
vt 0.678135 0.692684
vt 0.664164 0.702773
vt 0.664164 0.692684
vt 0.985493 0.0220306
vt 0.981471 0.0220306
vt 0.68152 0.722442
vt 0.664164 0.722442
vt 0.664164 0.718302
vt 0.68152 0.718302
vt 0.698875 0.718302
vt 0.698875 0.722442
vt 0.764669 0.718302
vt 0.764669 0.722442
vt 0.782026 0.722442
vt 0.782026 0.718302
vt 0.799383 0.718302
vt 0.799383 0.722442
vt 0.985979 0.423552
vt 0.99 0.423552
vt 0.936002 0.0233874
vt 0.936006 0.405687
vt 0.925926 0.40559
vt 0.92583 0.0258082
vt 0.782026 0.710798
vt 0.799383 0.710798
vt 0.799383 0.714938
vt 0.782026 0.714938
vt 0.764669 0.714938
vt 0.764669 0.710798
vt 0.698875 0.710798
vt 0.698875 0.714938
vt 0.68152 0.710798
vt 0.68152 0.714938
vt 0.664164 0.714938
vt 0.664164 0.710798
vt 0.930779 0.418893
vt 0.940964 0.42135
vt 0.940877 0.800648
vt 0.930784 0.800706
vt 0.393888 0.965392
vt 0.391389 0.977458
vt 0.0107751 0.97737
vt 0.0106605 0.965376
vt 0.781334 0.983027
vt 0.398627 0.983036
vt 0.398695 0.971025
vt 0.778793 0.970944
vt 0.0213239 0.943876
vt 0.764062 0.943876
vt 0.764669 0.726969
vt 0.698875 0.726969
vt 0.698875 0.706271
vt 0.764669 0.706271
vt 0.763967 0.940715
vt 0.0213225 0.940715
vt 0.782026 0.706271
vt 0.799383 0.706271
vt 0.799383 0.726969
vt 0.782026 0.726969
vt 0.68152 0.706271
vt 0.68152 0.726969
vt 0.664164 0.706271
vt 0.664164 0.726969
vt 0.781973 0.988001
vt 0.397987 0.988001
vt 0.0100001 0.960418
vt 0.394508 0.960418
vt 0.92583 0.801344
vt 0.92583 0.418166
vt 0.664164 0.688225
vt 0.678135 0.688225
vt 0.692105 0.688225
vt 0.754876 0.688225
vt 0.768849 0.688225
vt 0.782822 0.688225
vt 0.940953 0.0226791
vt 0.940953 0.406346
vt 0.981471 0.814342
vt 0.981471 0.423552
vt 0.965859 0.0296679
vt 0.965859 0.66168
vt 0.782779 0.685108
vt 0.768811 0.685108
vt 0.754844 0.685108
vt 0.692095 0.685108
vt 0.678129 0.685108
vt 0.664164 0.685108
vt 0.99 0.0220306
vt 0.99 0.412817
vt 0.97797 0.0296491
vt 0.97797 0.420435
vt 0.945379 0.661679
vt 0.945379 0.0296679
vt 0.977969 0.423552
vt 0.977969 0.814341
vt 0.981471 0.82196
vt 0.965859 0.669318
vt 0.965859 0.0220306
vt 0.99 0.420435
vt 0.97797 0.0220306
vt 0.945379 0.0220306
vt 0.945379 0.669316
vt 0.977969 0.82196
vt 0.402692 0.962474
vt 0.400389 0.966907
vt 0.776391 0.940715
vt 0.0100001 0.940715
vt 0.938903 0.0145115
vt 0.934478 0.0168086
vt 0.927887 0.410018
vt 0.932306 0.412329
vt 0.01 0.943876
vt 0.776487 0.943876
vt 0.790137 0.985938
vt 0.787821 0.981509
vt 0.0100001 0.668676
vt 0.0197464 0.668676
vt 0.0197464 0.688273
vt 0.0100001 0.688273
vt 0.650009 0.668676
vt 0.650009 0.688273
vt 0.659755 0.668676
vt 0.659755 0.688273
vt 0.0197464 0.70787
vt 0.0100001 0.70787
vt 0.650009 0.70787
vt 0.659755 0.70787
vt 0.0100001 0.775086
vt 0.0197464 0.775086
vt 0.0197464 0.794685
vt 0.0100001 0.794685
vt 0.650009 0.775086
vt 0.650009 0.794685
vt 0.659755 0.775086
vt 0.659755 0.794685
vt 0.0197464 0.814284
vt 0.0100001 0.814284
vt 0.650009 0.814284
vt 0.659755 0.814284
vt 0.801162 0.01
vt 0.801162 0.0198284
vt 0.411522 0.0198905
vt 0.411521 0.0100641
vt 0.801162 0.655393
vt 0.411521 0.655333
vt 0.801162 0.665222
vt 0.411521 0.66516
vt 0.408258 0.0100607
vt 0.408258 0.019887
vt 0.0186171 0.0198283
vt 0.0186171 0.01
vt 0.408258 0.655331
vt 0.0186171 0.655392
vt 0.408258 0.665158
vt 0.0186171 0.66522
vt 0.809779 0.656462
vt 0.807393 0.662797
vt 0.0123857 0.662795
vt 0.01 0.656461
vt 0.807394 0.0124251
vt 0.809779 0.0187594
vt 0.01 0.0187593
vt 0.0123857 0.0124249
vt 0.0100001 0.923436
vt 0.0100001 0.904906
vt 0.589182 0.904906
vt 0.589182 0.923436
vt 0.0100002 0.836083
vt 0.589181 0.836084
vt 0.0100002 0.817554
vt 0.589181 0.817555
vt 0.813043 0.381445
vt 0.832149 0.381448
vt 0.832149 0.728894
vt 0.813043 0.728891
vt 0.903116 0.381462
vt 0.903115 0.728909
vt 0.922223 0.381466
vt 0.922221 0.728912
vt 0.813043 0.0145327
vt 0.832149 0.0145289
vt 0.832151 0.361975
vt 0.813045 0.361979
vt 0.903117 0.0145152
vt 0.903117 0.361961
vt 0.922223 0.0145115
vt 0.922223 0.361957
vt 0.832395 0.377485
vt 0.818713 0.372945
vt 0.916557 0.372926
vt 0.902874 0.377472
vt 0.916554 0.739878
vt 0.902872 0.744419
vt 0.832392 0.744406
vt 0.81871 0.73986
mtllib my_book.mtl
usemtl Book
g Default
f 1/1/1 96/2/2 104/3/3 93/4/4
f 9/5/5 92/6/6 100/7/7 89/8/8
f 8/9/9 88/10/10 108/11/11 85/12/12
f 10/13/13 84/14/14 112/15/15 81/16/16
f 111/17/17 109/18/17 65/19/18 82/20/18
f 83/21/19 67/22/19 109/23/20 111/24/20
f 107/25/21 105/26/21 69/27/22 86/28/22
f 87/29/23 71/30/23 105/31/24 107/32/24
f 103/33/24 101/34/24 79/35/25 94/36/25
f 77/37/26 101/38/27 103/39/27 95/40/26
f 97/41/28 73/42/29 90/43/29 99/44/28
f 91/45/30 75/46/30 97/47/17 99/48/17
f 15/49/31 64/50/31 53/51/32 16/52/32
f 14/53/33 56/54/33 64/50/34 15/49/34
f 13/55/35 48/56/35 56/54/33 14/53/33
f 12/57/36 60/58/36 48/56/35 13/55/35
f 11/59/37 46/60/37 60/58/38 12/57/38
f 30/61/39 75/46/30 91/45/30 54/62/39
f 95/40/26 90/43/29 73/42/29 77/37/26
f 25/63/40 49/64/40 94/36/25 79/35/25
f 6/65/41 58/66/41 41/67/42 7/68/42
f 5/69/35 44/70/35 58/66/36 6/65/36
f 4/71/43 52/72/43 44/70/35 5/69/35
f 3/73/34 62/74/34 52/72/43 4/71/43
f 2/75/44 50/76/44 62/74/45 3/73/45
f 18/77/46 71/30/23 87/29/23 42/78/46
f 40/79/47 30/80/39 54/81/39 63/82/47
f 40/79/47 63/82/47 55/83/47 32/84/47
f 32/84/47 55/83/47 47/85/47 23/86/47
f 36/87/47 23/86/47 47/85/47 59/88/47
f 36/87/47 59/88/47 45/89/48 21/90/48
f 69/27/22 67/22/19 83/21/19 86/28/22
f 21/91/48 45/92/48 82/20/18 65/19/18
f 93/93/4 50/94/44 2/95/44 1/96/1
f 33/97/49 18/98/46 42/99/46 57/100/49
f 33/97/49 57/100/49 43/101/49 20/102/49
f 27/103/49 20/102/49 43/101/49 51/104/49
f 37/105/49 27/103/49 51/104/49 61/106/49
f 37/105/49 61/106/49 49/107/40 25/108/40
f 88/109/10 8/110/9 7/111/42 41/112/42
f 92/113/6 9/114/5 16/115/32 53/116/32
f 81/117/16 46/118/37 11/119/37 10/120/13
f 89/8/8 96/2/2 1/1/1 9/5/5
f 84/14/14 10/13/13 8/9/9 85/12/12
f 84/14/50 85/12/51 86/121/51 83/122/50
f 32/84/52 23/86/53 24/123/53 31/124/52
f 28/125/54 19/126/55 20/102/55 27/103/54
f 96/2/56 89/8/57 90/127/57 95/128/56
f 18/98/58 33/97/59 34/129/59 17/130/58
f 36/87/60 21/90/61 22/131/61 35/132/60
f 33/97/59 20/102/55 19/126/55 34/129/59
f 23/86/53 36/87/60 35/132/60 24/123/53
f 27/103/54 37/105/62 38/133/62 28/125/54
f 40/79/63 32/84/52 31/124/52 39/134/63
f 37/105/62 25/108/64 26/135/64 38/133/62
f 30/80/65 40/79/63 39/134/63 29/136/65
f 46/118/66 81/117/67 82/137/67 45/138/66
f 92/113/68 53/116/69 54/139/69 91/140/68
f 88/109/70 41/112/71 42/141/71 87/142/70
f 62/74/72 50/76/73 49/143/73 61/144/72
f 52/72/74 62/74/72 61/144/72 51/145/74
f 44/70/75 52/72/74 51/145/74 43/146/75
f 58/66/76 44/70/75 43/146/75 57/147/76
f 41/67/71 58/66/76 57/147/76 42/148/71
f 50/94/73 93/93/77 94/149/77 49/150/73
f 21/91/61 65/19/78 66/151/78 22/152/61
f 67/22/79 69/27/80 70/153/80 68/154/79
f 60/58/81 46/60/66 45/155/66 59/156/81
f 48/56/82 60/58/81 59/156/81 47/157/82
f 56/54/83 48/56/82 47/157/82 55/158/83
f 64/50/84 56/54/83 55/158/83 63/159/84
f 53/51/69 64/50/84 63/159/84 54/160/69
f 71/30/85 18/77/58 17/161/58 72/162/85
f 25/63/64 79/35/86 80/163/86 26/164/64
f 77/37/87 73/42/88 74/165/88 78/166/87
f 75/46/89 30/61/65 29/167/65 76/168/89
f 110/169/90 66/151/78 65/19/78 109/18/90
f 68/154/79 110/170/90 109/23/90 67/22/79
f 106/171/91 70/153/80 69/27/80 105/26/91
f 72/162/85 106/172/91 105/31/91 71/30/85
f 102/173/92 80/163/86 79/35/86 101/34/92
f 78/166/87 102/174/92 101/38/92 77/37/87
f 98/175/93 74/165/88 73/42/88 97/41/93
f 76/168/89 98/176/93 97/47/93 75/46/89
f 91/140/68 99/177/94 100/178/94 92/113/68
f 99/179/94 90/127/57 89/8/57 100/7/94
f 95/128/56 103/180/95 104/3/95 96/2/56
f 103/181/95 94/149/77 93/93/77 104/182/95
f 87/142/70 107/183/96 108/184/96 88/109/70
f 107/185/96 86/121/51 85/12/51 108/11/96
f 83/122/50 111/186/97 112/15/97 84/14/50
f 111/187/97 82/137/67 81/117/67 112/188/97
f 26/189/98 113/190/98 114/191/99 38/192/100
f 113/190/98 115/193/98 116/194/99 114/191/99
f 115/193/98 29/195/98 39/196/100 116/194/99
f 38/192/101 114/191/101 117/197/102 28/198/103
f 114/191/101 116/194/101 118/199/102 117/197/102
f 116/194/101 39/196/101 31/200/103 118/199/102
f 19/201/104 119/202/104 120/203/105 34/204/105
f 119/202/104 121/205/104 122/206/105 120/203/105
f 121/205/104 24/207/104 35/208/105 122/206/105
f 34/204/106 120/203/106 123/209/107 17/210/108
f 120/203/106 122/206/106 124/211/107 123/209/107
f 122/206/106 35/208/106 22/212/108 124/211/107
f 28/198/103 117/197/102 119/202/104 19/201/104
f 117/197/102 118/199/102 121/205/104 119/202/104
f 118/199/102 31/200/103 24/207/104 121/205/104
f 80/213/109 125/214/110 113/215/98 26/216/98
f 125/214/110 126/217/111 115/218/98 113/215/98
f 126/217/111 76/219/112 29/220/98 115/218/98
f 17/221/108 123/222/107 127/223/113 72/224/114
f 123/222/107 124/225/107 128/226/115 127/223/113
f 124/225/107 22/227/108 66/228/116 128/226/115
f 74/229/117 98/230/118 76/219/112 126/217/111
f 66/228/116 110/231/119 68/232/120 128/226/115
f 80/213/109 102/233/121 78/234/122 125/214/110
f 78/234/122 74/229/117 126/217/111 125/214/110
f 68/232/120 70/235/123 127/223/113 128/226/115
f 70/235/123 106/236/124 72/224/114 127/223/113
f 1/237/125 129/238/126 130/239/126 9/240/125
f 129/238/126 131/241/126 132/242/126 130/239/126
f 131/241/126 8/243/125 10/244/125 132/242/126
f 8/245/127 131/246/128 133/247/129 7/248/130
f 131/246/128 129/249/131 134/250/132 133/247/129
f 129/249/131 1/251/133 2/252/134 134/250/132
f 9/253/135 130/254/136 135/255/137 16/256/138
f 130/254/136 132/257/139 136/258/140 135/255/137
f 132/257/139 10/259/141 11/260/142 136/258/140
f 14/261/47 15/262/47 16/256/138 135/255/137
f 11/260/142 12/263/47 13/264/47 136/258/140
f 13/264/47 14/261/47 135/255/137 136/258/140
f 2/252/134 3/265/49 4/266/49 134/250/132
f 4/266/49 5/267/49 133/247/129 134/250/132
f 5/267/49 6/268/49 7/248/130 133/247/129
